<svg width="72" height="72" viewBox="0 0 72 72" xmlns="http://www.w3.org/2000/svg">
  <defs>
    <linearGradient id="k2048Bg" x1="0" y1="0" x2="0" y2="1">
      <stop offset="0%" stop-color="#BBADA0"/>
      <stop offset="100%" stop-color="#8A7060"/>
    </linearGradient>
    <linearGradient id="k2048Shine" x1="0" y1="0" x2="0" y2="1">
      <stop offset="0%" stop-color="rgba(255,255,255,0.45)"/>
      <stop offset="55%" stop-color="rgba(255,255,255,0)"/>
    </linearGradient>
    <clipPath id="k2048Clip"><rect width="72" height="72" rx="16" ry="16"/></clipPath>
  </defs>
  <rect width="72" height="72" rx="16" fill="url(#k2048Bg)"/>
  <rect x="7" y="7" width="58" height="58" rx="6" fill="#BBADA0"/>
  <rect x="10" y="10" width="24" height="24" rx="3" fill="#EEE4DA"/>
  <text x="22" y="27" text-anchor="middle" font-family="Arial Black, sans-serif" font-size="13" font-weight="900" fill="#776E65">2</text>
  <rect x="38" y="10" width="24" height="24" rx="3" fill="#EDE0C8"/>
  <text x="50" y="27" text-anchor="middle" font-family="Arial Black, sans-serif" font-size="13" font-weight="900" fill="#776E65">4</text>
  <rect x="10" y="38" width="24" height="24" rx="3" fill="#F59563"/>
  <text x="22" y="55" text-anchor="middle" font-family="Arial Black, sans-serif" font-size="11" font-weight="900" fill="white">16</text>
  <rect x="38" y="38" width="24" height="24" rx="3" fill="#EDC22E"/>
  <rect x="38" y="38" width="24" height="24" rx="3" fill="none" stroke="#F5D060" stroke-width="2" opacity="0.8"/>
  <text x="50" y="54" text-anchor="middle" font-family="Arial Black, sans-serif" font-size="8.5" font-weight="900" fill="white">2048</text>
  <rect width="72" height="36" rx="16" fill="url(#k2048Shine)" clip-path="url(#k2048Clip)"/>
  <rect width="72" height="72" rx="16" fill="none" stroke="rgba(255,255,255,0.25)" stroke-width="1"/>
</svg>
